<?xml version="1.0" encoding="utf-8"?>
<!-- Generator: Adobe Illustrator 21.0.2, SVG Export Plug-In . SVG Version: 6.00 Build 0)  -->
<svg version="1.1" id="Layer_1" xmlns="http://www.w3.org/2000/svg" xmlns:xlink="http://www.w3.org/1999/xlink" x="0px" y="0px"
	 viewBox="0 0 841.9 595.3" style="enable-background:new 0 0 841.9 595.3;" xml:space="preserve">
<style type="text/css">
	.st0{fill:#FFFFFF;}
</style>
<g id="Camada_x0020_1">
	<path class="st0" d="M102,191.9c39.7,1.4,100.2,15.6,116,54.9c16.1,40.2-14.2,76.4-41.6,99.3c-3.1,2.6-2.9,2.3-5.8,4.5l-7,6.4
		c31.2-4.8,108.3-59,90.9-115.3C238,188.8,140.4,182.4,102,191.9z"/>
	<path class="st0" d="M173.1,187.2c29.5,1.3,74.7,14.4,86.4,50.4c12,36.9-10.6,70.2-31,91.3c-2.3,2.4-2.2,2.1-4.3,4.1l-5.2,5.9
		c23.2-4.4,80.6-54.2,67.7-106C274.5,184.3,201.7,178.5,173.1,187.2z"/>
	<path class="st0" d="M204.6,278.8c-6.8,18.2-48.8,62.4-80.1,53c-32-9.6-18.9-86.7-18.8-116.8c-4.4,8.6-45,143.7-1.1,149.1
		C141.1,368.6,205.6,307.6,204.6,278.8z"/>
	<path class="st0" d="M307,329h35.4c31.4,0,58.2-16.9,58.2-61.2c0-25-15.4-38.3-41.3-38.3h-34.8L307,329z M346.8,249.6h8.4
		c10.5,0,19.1,4.6,19.1,20.9c0,23.6-10.9,38.6-28.1,38.6h-10L346.8,249.6z"/>
	<path class="st0" d="M449.7,272.7c0,8.1-12.2,12.3-20.9,12.7c1.9-8.1,6.9-17.5,15.7-17.5C447.1,267.9,449.7,269.4,449.7,272.7z
		 M448,250.2c-29,0-45.9,25-45.9,50.4c0,17.6,9,30.8,30.8,30.8c16.8,0,28.6-6.7,31.6-8.8l-5.2-16c-5.4,3.1-12.3,6.3-19.4,6.3
		c-9.1,0-12.7-5.7-12.6-12.4c16-1,44.4-5.5,44.4-30.6C471.7,257,462.7,250.2,448,250.2z"/>
	<path class="st0" d="M480,257.3c0,8.7,7.8,70.4,7.9,70.7c0.1,0.3,25.4,2.2,27.5,0.6c0.9-0.7,37.1-62.2,40.8-71.6
		c0.3-0.9-25.4-6-26-5.8s-22.7,46.1-22.7,46.1s-1.5-45.8-2.8-45.8C503.1,251.4,480,255.2,480,257.3z"/>
	<polygon class="st0" points="547.2,295.9 586.4,295.9 589.7,277.5 550.5,277.5 	"/>
	<polygon class="st0" points="590.9,329 657,329 660.8,306.6 620.5,306.6 623.6,289.4 657.2,289.4 661.2,267.3 627.5,267.3 
		630.2,252 669.4,252 673.4,229.6 608.3,229.6 	"/>
	<path class="st0" d="M663.3,319.6c5.7,4.5,20,11.5,37.1,11.5c24.2,0,41.3-13.5,41.3-34.4c0-15.4-10.8-21.7-21.3-26
		c-10.9-4.5-17.3-6.3-17.3-13.6c0-5.4,4.5-7.8,10.5-7.8c7.3,0,14.9,4.3,21.8,10.2l15.3-15.8c-7-8.1-20.6-15.7-35.9-15.7
		c-23.2,0-39.2,11.4-39.2,32.9c0,16.2,10.1,22.3,20.3,26.2c8.8,3.4,17.5,5.8,17.5,12.6c0,6.9-5.5,9.3-12,9.3
		c-8.4,0-20.2-5.4-26.2-9.6L663.3,319.6z"/>
</g>
</svg>
